# xmcd
#
# Track frame offsets: 
#        150
#        2604
#        17734
#        34689
#        55144
#        71999
#        90939
#        111451
#        126996
#        140899
#        160742
#        178077
#        193848
#        211416
#        229235
#        250077
#        264601
#        285513
#        299877
#        317968
#
# Disc length: 4439 seconds
#
# Revision: 0
# Processed by: cddbd v1.5.1PL0 Copyright (c) Steve Scherf et al.
# Submitted via: ExactAudioCopy v0.95b3
#
DISCID=38115514
DTITLE=Various Artist - Under Pressure Volume 1
DYEAR=2002
DGENRE=Techno
TTITLE0=Intro - Intro
TTITLE1=Unknow Human - Clater
TTITLE2=Marco Lenzi - Stolen Beatz Part 1
TTITLE3=DJ Hansz - Congo
TTITLE4=Michael Burkat - Factory Groove
TTITLE5=Rino Cerrone - Samba Diversion
TTITLE6=Joel Mull - The Mole (Gaetek Mix)
TTITLE7=Richard Harvey - User 015B2
TTITLE8=Michael Burkat - Rauxel Rules
TTITLE9=Marco Lenzi - Rhythm Maker Part 2
TTITLE10=Pounding Grooves - PGV 024A
TTITLE11=Soul Mate - Play Smart
TTITLE12=Jel Ford - Distinctly Neapolitan
TTITLE13=Lars Klein - Drop of Bitterness
TTITLE14=Pounding Grooves - Bunch Off
TTITLE15=Michael Burkat - Rhythm
TTITLE16=C. Smith and J. Selway - Weather (Planetary Assault Systems M
TTITLE16=ix 1)
TTITLE17=Richard Harvey - User 015A1
TTITLE18=Danilo Vigorito - Auger
TTITLE19=UK Gold - Agent Wood (Adam Beyer Mix)
EXTD=
EXTT0=
EXTT1=
EXTT2=
EXTT3=
EXTT4=
EXTT5=
EXTT6=
EXTT7=
EXTT8=
EXTT9=
EXTT10=
EXTT11=
EXTT12=
EXTT13=
EXTT14=
EXTT15=
EXTT16=
EXTT17=
EXTT18=
EXTT19=
PLAYORDER=
